<svg width="80" height="105" viewBox="0 0 80 105" fill="none" xmlns="http://www.w3.org/2000/svg">
<g filter="url(#filter0_d)">
<path fill-rule="evenodd" clip-rule="evenodd" d="M35.1691 39.1455C31.8761 36.9896 29.4096 35.721 22.553 33.2208C20.8003 19.294 22.3197 12.1612 29.4441 0.634791C25.7226 12.935 25.1955 19.4558 26.3696 30.5758C29.4564 33.439 31.8132 35.0281 36.5473 37.8759L37.6074 36.8179C37.4735 36.7549 37.344 36.6949 37.2186 36.6368C35.8769 36.0151 35.015 35.6158 34.4269 34.1729C34.4269 34.1729 36.6129 31.6785 38.6676 30.5758C37.4418 32.4602 37.1808 33.2648 37.6074 34.1729L38.6676 35.5483C40.45 35.8003 41.42 35.8831 42.9083 35.5483C42.9083 35.5483 45.1347 35.8657 45.1347 34.1729C45.1347 32.4802 43.5444 30.5758 43.5444 30.5758C45.6378 31.0962 46.6353 31.72 48.2092 33.2208C47.0142 35.1686 46.3419 35.5694 45.1519 36.2787L45.1347 36.2889L46.0888 37.8759L55.8424 31.3164C57.9971 18.8181 56.6326 11.9981 51.9198 0C58.5444 9.13552 61.1898 15.4658 60.1891 33.2208L46.8309 39.1455V40.0977L67.3983 39.1455C68.4457 31.9238 67.9099 27.3923 65.596 18.7263C70.6664 25.7062 71.9235 31.1242 71.4269 43.3774C61.7294 41.221 56.5682 41.4131 46.8309 42.002L46.0888 43.3774C61.0794 44.7037 68.4336 45.8576 78 49.3021C73.49 80.634 67.0756 90.3413 53.8281 104C63.9773 88.5811 68.8222 78.7632 71.2149 52.5819C62.1205 48.1783 56.5393 46.4479 46.0888 44.118V45.4934C46.7811 45.7723 47.4523 46.0421 48.1043 46.304C56.204 49.5588 61.3203 51.6147 66.6562 55.2269C65.45 71.9774 63.1618 80.5754 55.5244 94.1607C60.082 81.6924 61.6331 73.5299 62.0974 56.2848L45.7708 45.9166L45.1347 46.6572C49.2995 48.9856 51.2348 50.4669 53.9341 53.4283C53.7939 58.6243 53.6445 61.0562 53.298 64.8545C49.772 71.2536 47.0018 73.4316 41.9542 77.1272C36.1356 74.1153 33.316 71.4522 29.1261 64.8545C28.4884 60.6606 28.316 58.1937 28.596 53.4283C31.6908 50.3188 33.5677 48.8725 37.2894 47.0804L36.5473 45.9166C35.4139 46.5875 34.3662 47.1972 33.3759 47.7735C28.8328 50.4172 25.4978 52.3579 20.6447 56.2848C20.3622 74.2715 22.1309 82.5168 28.49 94.1607C21.5578 85.8216 17.6999 76.0622 15.9799 55.2269C23.804 50.258 28.1438 48.4554 35.1735 45.5355C35.62 45.35 36.0774 45.16 36.5473 44.9644L36.0172 44.118C35.4629 44.2721 34.9193 44.4229 34.3861 44.5709C23.5756 47.5712 17.0339 49.3868 11.5272 52.5819C13.1625 76.5847 17.8857 87.3609 29.9742 104C14.2552 89.4694 8.31029 77.463 4 49.3021C16.7606 45.9393 23.6737 44.6124 35.6991 42.9542L35.1691 42.002L11.5272 43.3774C10.4909 32.2789 11.8808 27.1016 15.9799 18.7263C14.4114 28.762 13.9609 33.6969 15.2378 39.1455L35.1691 40.0977V39.1455ZM32.9427 53.4283C33.9193 51.7123 34.5162 50.9253 35.6991 49.9369C33.2331 51.1765 32.317 51.8636 30.7163 53.4283C30.8796 57.6254 31.0249 59.2567 31.2273 61.5278C31.2666 61.9698 31.3082 62.436 31.3524 62.9502C35.2135 68.6719 40.6819 73.001 41.9542 72.5778C43.2264 72.1546 47.4935 68.5484 50.7536 62.9502C51.3996 60.0647 51.4334 57.7299 51.4914 53.7259L51.4957 53.4283C49.4264 51.2161 48.4043 50.3064 46.8309 49.3021C48.6715 51.3169 49.1709 52.1928 49.3754 53.4283C50.0296 56.4899 49.8862 58.4608 49.3754 62.1038C46.3781 65.6047 44.5448 67.2861 40.6819 69.1923C37.2118 66.5678 35.5854 64.906 33.4728 61.469C32.559 58.489 32.6271 56.6868 32.9427 53.4283Z" fill="#F4F7FB"/>
</g>
<defs>
<filter id="filter0_d" x="0" y="0" width="80" height="105" filterUnits="userSpaceOnUse" color-interpolation-filters="sRGB">
<feFlood flood-opacity="0" result="BackgroundImageFix"/>
<feColorMatrix in="SourceAlpha" type="matrix" values="0 0 0 0 0 0 0 0 0 0 0 0 0 0 0 0 0 0 127 0"/>
<feOffset dy="4"/>
<feGaussianBlur stdDeviation="2"/>
<feColorMatrix type="matrix" values="0 0 0 0 0 0 0 0 0 0 0 0 0 0 0 0 0 0 0.25 0"/>
<feBlend mode="normal" in2="BackgroundImageFix" result="effect1_dropShadow"/>
<feBlend mode="normal" in="SourceGraphic" in2="effect1_dropShadow" result="shape"/>
</filter>
</defs>
</svg>
