<svg width="290" height="129" viewBox="0 0 290 129" fill="none" xmlns="http://www.w3.org/2000/svg">
<g clip-path="url(#clip0)">
<path fill-rule="evenodd" clip-rule="evenodd" d="M115.465 44.066C116.638 44.012 117.012 44 120 44C122.988 44 123.362 44.013 124.534 44.066C125.706 44.119 126.506 44.306 127.206 44.577C127.939 44.854 128.604 45.287 129.154 45.847C129.714 46.396 130.146 47.06 130.422 47.794C130.694 48.494 130.88 49.294 130.934 50.464C130.988 51.639 131 52.013 131 55C131 57.988 130.987 58.362 130.934 59.535C130.881 60.705 130.694 61.505 130.422 62.205C130.146 62.9391 129.713 63.6042 129.154 64.154C128.604 64.714 127.939 65.146 127.206 65.422C126.506 65.694 125.706 65.88 124.536 65.934C123.362 65.988 122.988 66 120 66C117.012 66 116.638 65.987 115.465 65.934C114.295 65.881 113.495 65.694 112.795 65.422C112.061 65.146 111.396 64.7133 110.846 64.154C110.286 63.6047 109.853 62.9399 109.577 62.206C109.306 61.506 109.12 60.706 109.066 59.536C109.012 58.361 109 57.987 109 55C109 52.012 109.013 51.638 109.066 50.466C109.119 49.294 109.306 48.494 109.577 47.794C109.854 47.0601 110.287 46.3953 110.847 45.846C111.396 45.2865 112.06 44.8534 112.794 44.577C113.494 44.306 114.294 44.12 115.464 44.066H115.465ZM124.445 46.046C123.285 45.993 122.937 45.982 120 45.982C117.063 45.982 116.715 45.993 115.555 46.046C114.482 46.095 113.9 46.274 113.512 46.425C112.999 46.625 112.632 46.862 112.247 47.247C111.882 47.6021 111.601 48.0343 111.425 48.512C111.274 48.9 111.095 49.482 111.046 50.555C110.993 51.715 110.982 52.063 110.982 55C110.982 57.937 110.993 58.285 111.046 59.445C111.095 60.518 111.274 61.1 111.425 61.488C111.601 61.965 111.882 62.398 112.247 62.753C112.602 63.118 113.035 63.399 113.512 63.575C113.9 63.726 114.482 63.905 115.555 63.954C116.715 64.007 117.062 64.018 120 64.018C122.938 64.018 123.285 64.007 124.445 63.954C125.518 63.905 126.1 63.726 126.488 63.575C127.001 63.375 127.368 63.138 127.753 62.753C128.118 62.398 128.399 61.965 128.575 61.488C128.726 61.1 128.905 60.518 128.954 59.445C129.007 58.285 129.018 57.937 129.018 55C129.018 52.063 129.007 51.715 128.954 50.555C128.905 49.482 128.726 48.9 128.575 48.512C128.375 47.999 128.138 47.632 127.753 47.247C127.398 46.8821 126.966 46.6012 126.488 46.425C126.1 46.274 125.518 46.095 124.445 46.046ZM118.595 58.391C119.38 58.7176 120.253 58.7617 121.067 58.5157C121.88 58.2697 122.583 57.7489 123.056 57.0422C123.528 56.3356 123.74 55.4869 123.656 54.6411C123.572 53.7953 123.197 53.005 122.595 52.405C122.211 52.0215 121.747 51.7278 121.236 51.5451C120.725 51.3625 120.18 51.2954 119.64 51.3486C119.101 51.4019 118.579 51.5742 118.114 51.8531C117.648 52.1321 117.251 52.5107 116.949 52.9619C116.648 53.413 116.45 53.9253 116.371 54.462C116.291 54.9986 116.331 55.5463 116.489 56.0655C116.646 56.5847 116.916 57.0626 117.281 57.4647C117.645 57.8668 118.094 58.1832 118.595 58.391ZM116.002 51.002C116.527 50.477 117.15 50.0605 117.836 49.7764C118.522 49.4922 119.258 49.346 120 49.346C120.742 49.346 121.478 49.4922 122.164 49.7764C122.85 50.0605 123.473 50.477 123.998 51.002C124.523 51.527 124.939 52.1503 125.224 52.8363C125.508 53.5223 125.654 54.2575 125.654 55C125.654 55.7425 125.508 56.4777 125.224 57.1637C124.939 57.8497 124.523 58.473 123.998 58.998C122.938 60.0583 121.5 60.654 120 60.654C118.5 60.654 117.062 60.0583 116.002 58.998C114.942 57.9377 114.346 56.4995 114.346 55C114.346 53.5005 114.942 52.0623 116.002 51.002ZM126.908 50.188C127.038 50.0653 127.142 49.9177 127.214 49.754C127.286 49.5903 127.325 49.4138 127.327 49.2349C127.33 49.0561 127.297 48.8785 127.229 48.7128C127.162 48.5471 127.062 48.3965 126.936 48.27C126.809 48.1436 126.659 48.0438 126.493 47.9765C126.327 47.9093 126.15 47.876 125.971 47.8786C125.792 47.8812 125.616 47.9197 125.452 47.9917C125.288 48.0637 125.141 48.1679 125.018 48.298C124.779 48.551 124.649 48.8871 124.654 49.2349C124.659 49.5827 124.799 49.9149 125.045 50.1608C125.291 50.4068 125.623 50.5472 125.971 50.5523C126.319 50.5574 126.655 50.4267 126.908 50.188Z" fill="white"/>
<path d="M194.625 53.4365C194.625 53.3721 194.625 53.2988 194.622 53.2139C194.62 52.9766 194.614 52.71 194.609 52.4258C194.588 51.6084 194.551 50.7939 194.493 50.0264C194.414 48.9687 194.298 48.0869 194.14 47.4248C193.973 46.7338 193.646 46.1037 193.191 45.5973C192.736 45.0909 192.169 44.726 191.548 44.5391C190.802 44.3164 189.341 44.1787 187.284 44.0937C186.306 44.0527 185.259 44.0264 184.213 44.0117C183.846 44.0059 183.506 44.0029 183.2 44H182.425C182.119 44.0029 181.779 44.0059 181.412 44.0117C180.366 44.0264 179.319 44.0527 178.341 44.0937C176.284 44.1816 174.821 44.3193 174.077 44.5391C173.455 44.7255 172.889 45.0902 172.434 45.5967C171.979 46.1032 171.652 46.7336 171.485 47.4248C171.324 48.0869 171.211 48.9687 171.132 50.0264C171.074 50.7939 171.037 51.6084 171.016 52.4258C171.008 52.71 171.005 52.9766 171.003 53.2139C171.003 53.2988 171 53.3721 171 53.4365V53.6006C171 53.665 171 53.7383 171.003 53.8232C171.005 54.0605 171.011 54.3271 171.016 54.6113C171.037 55.4287 171.074 56.2432 171.132 57.0107C171.211 58.0684 171.327 58.9502 171.485 59.6123C171.823 61.0156 172.814 62.123 174.077 62.498C174.821 62.7207 176.284 62.8584 178.341 62.9434C179.319 62.9844 180.366 63.0107 181.412 63.0254C181.779 63.0312 182.119 63.0342 182.425 63.0371H183.2C183.506 63.0342 183.846 63.0312 184.213 63.0254C185.259 63.0107 186.306 62.9844 187.284 62.9434C189.341 62.8555 190.804 62.7178 191.548 62.498C192.811 62.123 193.802 61.0186 194.14 59.6123C194.301 58.9502 194.414 58.0684 194.493 57.0107C194.551 56.2432 194.588 55.4287 194.609 54.6113C194.617 54.3271 194.62 54.0605 194.622 53.8232C194.622 53.7383 194.625 53.665 194.625 53.6006V53.4365ZM192.727 53.5889C192.727 53.6504 192.727 53.7178 192.724 53.7969C192.721 54.0254 192.716 54.2773 192.711 54.5498C192.692 55.3291 192.655 56.1084 192.6 56.832C192.529 57.7754 192.429 58.5488 192.305 59.0674C192.141 59.7441 191.661 60.2803 191.055 60.459C190.501 60.623 189.106 60.7549 187.211 60.834C186.251 60.875 185.217 60.9014 184.186 60.916C183.825 60.9219 183.49 60.9248 183.19 60.9248H182.435L181.439 60.916C180.408 60.9014 179.377 60.875 178.414 60.834C176.519 60.752 175.121 60.623 174.57 60.459C173.964 60.2773 173.484 59.7441 173.32 59.0674C173.196 58.5488 173.096 57.7754 173.025 56.832C172.97 56.1084 172.935 55.3291 172.914 54.5498C172.906 54.2773 172.904 54.0225 172.901 53.7969C172.901 53.7178 172.898 53.6475 172.898 53.5889V53.4482C172.898 53.3867 172.898 53.3193 172.901 53.2402C172.904 53.0117 172.909 52.7598 172.914 52.4873C172.933 51.708 172.97 50.9287 173.025 50.2051C173.096 49.2617 173.196 48.4883 173.32 47.9697C173.484 47.293 173.964 46.7568 174.57 46.5781C175.124 46.4141 176.519 46.2822 178.414 46.2031C179.374 46.1621 180.408 46.1357 181.439 46.1211C181.8 46.1152 182.135 46.1123 182.435 46.1123H183.19L184.186 46.1211C185.217 46.1357 186.248 46.1621 187.211 46.2031C189.106 46.2852 190.504 46.4141 191.055 46.5781C191.661 46.7598 192.141 47.293 192.305 47.9697C192.429 48.4883 192.529 49.2617 192.6 50.2051C192.655 50.9287 192.69 51.708 192.711 52.4873C192.719 52.7598 192.721 53.0146 192.724 53.2402C192.724 53.3193 192.727 53.3896 192.727 53.4482V53.5889ZM180.466 57.4443L186.583 53.4893L180.466 49.5928V57.4443Z" fill="white"/>
<path d="M194.625 53.4365C194.625 53.3721 194.625 53.2988 194.622 53.2139C194.62 52.9766 194.614 52.71 194.609 52.4258C194.588 51.6084 194.551 50.7939 194.493 50.0264C194.414 48.9687 194.298 48.0869 194.14 47.4248C193.973 46.7338 193.646 46.1037 193.191 45.5973C192.736 45.0909 192.169 44.726 191.548 44.5391C190.802 44.3164 189.341 44.1787 187.284 44.0937C186.306 44.0527 185.259 44.0264 184.213 44.0117C183.846 44.0059 183.506 44.0029 183.2 44H182.425C182.119 44.0029 181.779 44.0059 181.412 44.0117C180.366 44.0264 179.319 44.0527 178.341 44.0937C176.284 44.1816 174.821 44.3193 174.077 44.5391C173.455 44.7255 172.889 45.0902 172.434 45.5967C171.979 46.1032 171.652 46.7336 171.485 47.4248C171.324 48.0869 171.211 48.9687 171.132 50.0264C171.074 50.7939 171.037 51.6084 171.016 52.4258C171.008 52.71 171.005 52.9766 171.003 53.2139C171.003 53.2988 171 53.3721 171 53.4365V53.6006C171 53.665 171 53.7383 171.003 53.8232C171.005 54.0605 171.011 54.3271 171.016 54.6113C171.037 55.4287 171.074 56.2432 171.132 57.0107C171.211 58.0684 171.327 58.9502 171.485 59.6123C171.823 61.0156 172.814 62.123 174.077 62.498C174.821 62.7207 176.284 62.8584 178.341 62.9434C179.319 62.9844 180.366 63.0107 181.412 63.0254C181.779 63.0312 182.119 63.0342 182.425 63.0371H183.2C183.506 63.0342 183.846 63.0312 184.213 63.0254C185.259 63.0107 186.306 62.9844 187.284 62.9434C189.341 62.8555 190.804 62.7178 191.548 62.498C192.811 62.123 193.802 61.0186 194.14 59.6123C194.301 58.9502 194.414 58.0684 194.493 57.0107C194.551 56.2432 194.588 55.4287 194.609 54.6113C194.617 54.3271 194.62 54.0605 194.622 53.8232C194.622 53.7383 194.625 53.665 194.625 53.6006V53.4365ZM192.727 53.5889C192.727 53.6504 192.727 53.7178 192.724 53.7969C192.721 54.0254 192.716 54.2773 192.711 54.5498C192.692 55.3291 192.655 56.1084 192.6 56.832C192.529 57.7754 192.429 58.5488 192.305 59.0674C192.141 59.7441 191.661 60.2803 191.055 60.459C190.501 60.623 189.106 60.7549 187.211 60.834C186.251 60.875 185.217 60.9014 184.186 60.916C183.825 60.9219 183.49 60.9248 183.19 60.9248H182.435L181.439 60.916C180.408 60.9014 179.377 60.875 178.414 60.834C176.519 60.752 175.121 60.623 174.57 60.459C173.964 60.2773 173.484 59.7441 173.32 59.0674C173.196 58.5488 173.096 57.7754 173.025 56.832C172.97 56.1084 172.935 55.3291 172.914 54.5498C172.906 54.2773 172.904 54.0225 172.901 53.7969C172.901 53.7178 172.898 53.6475 172.898 53.5889V53.4482C172.898 53.3867 172.898 53.3193 172.901 53.2402C172.904 53.0117 172.909 52.7598 172.914 52.4873C172.933 51.708 172.97 50.9287 173.025 50.2051C173.096 49.2617 173.196 48.4883 173.32 47.9697C173.484 47.293 173.964 46.7568 174.57 46.5781C175.124 46.4141 176.519 46.2822 178.414 46.2031C179.374 46.1621 180.408 46.1357 181.439 46.1211C181.8 46.1152 182.135 46.1123 182.435 46.1123H183.19L184.186 46.1211C185.217 46.1357 186.248 46.1621 187.211 46.2031C189.106 46.2852 190.504 46.4141 191.055 46.5781C191.661 46.7598 192.141 47.293 192.305 47.9697C192.429 48.4883 192.529 49.2617 192.6 50.2051C192.655 50.9287 192.69 51.708 192.711 52.4873C192.719 52.7598 192.721 53.0146 192.724 53.2402C192.724 53.3193 192.727 53.3896 192.727 53.4482V53.5889ZM180.466 57.4443L186.583 53.4893L180.466 49.5928V57.4443Z" fill="white"/>
<path d="M68 47H50.75C50.3352 47 50 47.3352 50 47.75V65C50 65.4148 50.3352 65.75 50.75 65.75H68C68.4148 65.75 68.75 65.4148 68.75 65V47.75C68.75 47.3352 68.4148 47 68 47ZM65.8344 52.4727H64.3367C63.1625 52.4727 62.9352 53.0305 62.9352 53.8508V55.6578H65.7383L65.3727 58.4867H62.9352V65.75H60.0125V58.4891H57.568V55.6578H60.0125V53.5719C60.0125 51.1508 61.4914 49.8313 63.6523 49.8313C64.6883 49.8313 65.5766 49.9086 65.8367 49.9438V52.4727H65.8344Z" fill="white"/>
<path d="M257.706 46.1895C256.871 46.5595 255.974 46.8095 255.031 46.9225C256.004 46.3403 256.732 45.424 257.079 44.3445C256.165 44.8875 255.164 45.2697 254.121 45.4745C253.419 44.7254 252.49 44.2288 251.477 44.062C250.465 43.8951 249.425 44.0673 248.52 44.5518C247.615 45.0362 246.896 45.8059 246.473 46.7412C246.051 47.6766 245.949 48.7253 246.183 49.7245C244.331 49.6315 242.519 49.1501 240.864 48.3114C239.21 47.4728 237.751 46.2957 236.581 44.8565C236.181 45.5465 235.951 46.3465 235.951 47.1985C235.951 47.9655 236.139 48.7208 236.501 49.3973C236.862 50.0737 237.385 50.6506 238.023 51.0765C237.283 51.053 236.56 50.8531 235.913 50.4935V50.5535C235.913 51.6293 236.285 52.6719 236.966 53.5045C237.647 54.3371 238.596 54.9084 239.65 55.1215C238.964 55.3072 238.244 55.3346 237.546 55.2015C237.843 56.1271 238.423 56.9365 239.203 57.5164C239.984 58.0963 240.926 58.4177 241.898 58.4355C240.248 59.7309 238.21 60.4336 236.112 60.4305C235.74 60.4306 235.369 60.4089 235 60.3655C237.129 61.7347 239.608 62.4613 242.14 62.4585C250.71 62.4585 255.395 55.3605 255.395 49.2045C255.395 49.0045 255.39 48.8025 255.381 48.6025C256.292 47.9435 257.079 47.1274 257.704 46.1925L257.706 46.1895Z" fill="white"/>
<path d="M257.706 46.1895C256.871 46.5595 255.974 46.8095 255.031 46.9225C256.004 46.3403 256.732 45.424 257.079 44.3445C256.165 44.8875 255.164 45.2697 254.121 45.4745C253.419 44.7254 252.49 44.2288 251.477 44.062C250.465 43.8951 249.425 44.0673 248.52 44.5518C247.615 45.0362 246.896 45.8059 246.473 46.7412C246.051 47.6766 245.949 48.7253 246.183 49.7245C244.331 49.6315 242.519 49.1501 240.864 48.3114C239.21 47.4728 237.751 46.2957 236.581 44.8565C236.181 45.5465 235.951 46.3465 235.951 47.1985C235.951 47.9655 236.139 48.7208 236.501 49.3973C236.862 50.0737 237.385 50.6506 238.023 51.0765C237.283 51.053 236.56 50.8531 235.913 50.4935V50.5535C235.913 51.6293 236.285 52.6719 236.966 53.5045C237.647 54.3371 238.596 54.9084 239.65 55.1215C238.964 55.3072 238.244 55.3346 237.546 55.2015C237.843 56.1271 238.423 56.9365 239.203 57.5164C239.984 58.0963 240.926 58.4177 241.898 58.4355C240.248 59.7309 238.21 60.4336 236.112 60.4305C235.74 60.4306 235.369 60.4089 235 60.3655C237.129 61.7347 239.608 62.4613 242.14 62.4585C250.71 62.4585 255.395 55.3605 255.395 49.2045C255.395 49.0045 255.39 48.8025 255.381 48.6025C256.292 47.9435 257.079 47.1274 257.704 46.1925L257.706 46.1895Z" fill="white"/>
</g>
<defs>
<clipPath id="clip0">
<rect width="290" height="129" fill="white"/>
</clipPath>
</defs>
</svg>
