<svg width="133" height="165" viewBox="0 0 133 165" fill="none" xmlns="http://www.w3.org/2000/svg">
<g filter="url(#filter0_i)">
<path d="M0.106445 147.463H34.728C41.278 147.463 50.935 155.708 52.383 164.277H79.3511C82.3085 156.343 84.321 147.463 94.6139 147.463H132.043C130.763 139.703 127.76 136.472 118.943 132.517C95.9579 122.667 80.5782 101.692 80.5782 78.3391V40.975C80.5782 16.6883 70.2853 0.808533 64.671 0.808533C59.0566 0.808533 48.7638 16.6883 48.7638 40.975V78.3391C48.7638 101.692 32.5479 124.236 12.2708 132.517C3.32277 136.127 1.10683 139.634 0.106445 147.463Z" fill="url(#paint0_linear)"/>
</g>
<defs>
<filter id="filter0_i" x="0.106445" y="0.808533" width="132.766" height="166.787" filterUnits="userSpaceOnUse" color-interpolation-filters="sRGB">
<feFlood flood-opacity="0" result="BackgroundImageFix"/>
<feBlend mode="normal" in="SourceGraphic" in2="BackgroundImageFix" result="shape"/>
<feColorMatrix in="SourceAlpha" type="matrix" values="0 0 0 0 0 0 0 0 0 0 0 0 0 0 0 0 0 0 127 0" result="hardAlpha"/>
<feOffset dx="0.829787" dy="3.31915"/>
<feGaussianBlur stdDeviation="1.65957"/>
<feComposite in2="hardAlpha" operator="arithmetic" k2="-1" k3="1"/>
<feColorMatrix type="matrix" values="0 0 0 0 0.658333 0 0 0 0 0.658333 0 0 0 0 0.658333 0 0 0 0.7 0"/>
<feBlend mode="normal" in2="shape" result="effect1_innerShadow"/>
</filter>
<linearGradient id="paint0_linear" x1="87.1282" y1="0.808534" x2="33.0254" y2="165.266" gradientUnits="userSpaceOnUse">
<stop stop-color="#EDEFF0"/>
<stop offset="1" stop-color="#FAFCFC"/>
</linearGradient>
</defs>
</svg>
